<svg width="24" height="22" viewBox="0 0 24 22" fill="none" xmlns="http://www.w3.org/2000/svg">
<g clip-path="url(#clip0_439_654)">
<path d="M21.533 5.49944C21.5483 5.73201 21.5483 5.96463 21.5483 6.19719C21.5483 13.2909 16.5991 21.4644 7.55333 21.4644C4.76651 21.4644 2.17768 20.5839 0 19.0556C0.395954 19.1054 0.776628 19.122 1.18782 19.122C3.48728 19.122 5.60407 18.2748 7.29444 16.8294C5.13199 16.7796 3.3198 15.2346 2.69542 13.1081C3.00001 13.1579 3.30456 13.1912 3.62438 13.1912C4.066 13.1912 4.50766 13.1247 4.9188 13.0085C2.665 12.51 0.974582 10.3504 0.974582 7.74219V7.67576C1.62938 8.07447 2.39087 8.32366 3.19792 8.35684C1.87304 7.39328 1.00505 5.74863 1.00505 3.88797C1.00505 2.89122 1.24866 1.97751 1.67508 1.18009C4.09643 4.4362 7.73604 6.56262 11.8172 6.79524C11.7411 6.39652 11.6954 5.98125 11.6954 5.56592C11.6954 2.6088 13.8883 0.199951 16.6142 0.199951C18.0305 0.199951 19.3097 0.847852 20.2081 1.89446C21.3198 1.6619 22.3858 1.21332 23.3299 0.598663C22.9644 1.84466 22.1878 2.89126 21.1675 3.55574C22.1574 3.43951 23.1168 3.14041 24 2.72512C23.33 3.78831 22.4924 4.73521 21.533 5.49944Z" fill="white"/>
</g>
<defs>
<clipPath id="clip0_439_654">
<rect width="24" height="21.6" fill="white" transform="translate(0 0.199951)"/>
</clipPath>
</defs>
</svg>
